<svg xmlns="http://www.w3.org/2000/svg" viewBox="0 0 1600 900">
  <defs>
    <linearGradient id="bg" x1="0" y1="0" x2="1" y2="1">
      <stop offset="0%" stop-color="#130A10"/>
      <stop offset="100%" stop-color="#0e080c"/>
    </linearGradient>
  </defs>
  <rect width="1600" height="900" fill="url(#bg)"/>

  <!-- texture lines -->
  <g opacity="0.06" stroke="#C85A78" stroke-width="0.5">
    <line x1="0" y1="160" x2="1600" y2="220"/>
    <line x1="0" y1="340" x2="1600" y2="300"/>
    <line x1="0" y1="520" x2="1600" y2="560"/>
    <line x1="0" y1="720" x2="1600" y2="680"/>
  </g>

  <g opacity="0.36"><circle cx="1240" cy="500" r="100" fill="none" stroke="#C85A78" stroke-width="1" opacity="0.5"/><circle cx="1240" cy="500" r="170" fill="none" stroke="#C85A78" stroke-width="1" opacity="0.44"/><circle cx="1240" cy="500" r="240" fill="none" stroke="#C85A78" stroke-width="1" opacity="0.38"/><circle cx="1240" cy="500" r="310" fill="none" stroke="#C85A78" stroke-width="1" opacity="0.32"/><circle cx="1240" cy="500" r="380" fill="none" stroke="#C85A78" stroke-width="1" opacity="0.26"/><circle cx="1240" cy="500" r="450" fill="none" stroke="#C85A78" stroke-width="1" opacity="0.2"/><line x1="800" y1="200" x2="1100" y2="800" stroke="#C85A78" stroke-width="0.8" opacity="0.18"/><line x1="860" y1="200" x2="1190" y2="800" stroke="#C85A78" stroke-width="0.8" opacity="0.18"/><line x1="920" y1="200" x2="1280" y2="800" stroke="#C85A78" stroke-width="0.8" opacity="0.18"/><line x1="980" y1="200" x2="1370" y2="800" stroke="#C85A78" stroke-width="0.8" opacity="0.18"/><line x1="1040" y1="200" x2="1460" y2="800" stroke="#C85A78" stroke-width="0.8" opacity="0.18"/><rect x="780" y="320" width="2" height="360" fill="#C85A78" opacity="0.5"/><rect x="1620" y="220" width="2" height="500" fill="#C85A78" opacity="0.4"/></g>

  <!-- left text overlay -->
  <rect x="0" y="0" width="780" height="900" fill="#130A10" opacity="0.82"/>

  <!-- XRED EYEZ label -->
  <text x="68" y="92" font-family="'Courier New', monospace" font-size="12" fill="#C85A78" letter-spacing="4" opacity="0.9">XRED EYEZ CULTURE</text>

  <!-- Wordmark -->
  <text x="64" y="222" font-family="Georgia, 'Times New Roman', serif" font-size="86" fill="#F5F0E6" font-weight="700" letter-spacing="-1">CASC</text>
  

  <!-- Accent strip -->
  <text x="68" y="286" font-family="'Courier New', monospace" font-size="13" fill="#C85A78" letter-spacing="1" opacity="0.92">Members-only. Long established. Eixample.</text>
  <rect x="68" y="306" width="180" height="2.5" fill="#C85A78" opacity="0.85"/>

  <text x="68" y="346" font-family="'Courier New', monospace" font-size="11" fill="rgba(245,240,230,0.4)" letter-spacing="1">Eixample · social-club</text>

  <text x="68" y="852" font-family="'Courier New', monospace" font-size="10" fill="#C85A78" letter-spacing="3" opacity="0.45">BARCELONA</text>
</svg>
