<svg xmlns="http://www.w3.org/2000/svg" viewBox="0 0 1600 900">
  <defs>
    <linearGradient id="bg" x1="0" y1="0" x2="1" y2="1">
      <stop offset="0%" stop-color="#100C08"/>
      <stop offset="100%" stop-color="#1C1610"/>
    </linearGradient>
    <linearGradient id="amber" x1="0" y1="0" x2="0" y2="1">
      <stop offset="0%" stop-color="#E8A840"/>
      <stop offset="100%" stop-color="#C07820"/>
    </linearGradient>
  </defs>
  <rect width="1600" height="900" fill="url(#bg)"/>

  <!-- Gothic/chateau architecture — right panel -->
  <!-- Castle tower left -->
  <rect x="780" y="320" width="120" height="360" fill="#1E1610"/>
  <rect x="780" y="306" width="120" height="18" fill="#181208"/>
  <!-- Battlements -->
  <rect x="782" y="290" width="20" height="20" fill="#1E1610"/>
  <rect x="814" y="290" width="20" height="20" fill="#1E1610"/>
  <rect x="846" y="290" width="20" height="20" fill="#1E1610"/>
  <rect x="878" y="290" width="20" height="20" fill="#1E1610"/>
  <!-- Tower windows gothic -->
  <path d="M 810 380 L 810 420 Q 820 440 830 420 L 830 380 Z" fill="#2A1E10" opacity="0.8"/>
  <path d="M 848 380 L 848 420 Q 858 440 868 420 L 868 380 Z" fill="#2A1E10" opacity="0.8"/>
  <!-- Warm lit window -->
  <path d="M 822 455 L 822 495 Q 832 510 842 495 L 842 455 Z" fill="#E8A840" opacity="0.25"/>
  <path d="M 822 520 L 822 560 Q 832 575 842 560 L 842 520 Z" fill="#E8A840" opacity="0.2"/>

  <!-- Main chateau facade -->
  <rect x="900" y="380" width="400" height="300" fill="#1A1408"/>
  <rect x="900" y="365" width="400" height="20" fill="#141008"/>
  <!-- Steep roof -->
  <polygon points="900,365 1100,280 1300,365" fill="#0E0A06"/>
  <!-- Chimney -->
  <rect x="980" y="248" width="22" height="38" fill="#141008"/>
  <rect x="1040" y="238" width="18" height="48" fill="#0E0A06"/>
  <rect x="1180" y="252" width="20" height="34" fill="#141008"/>
  <!-- Roof dormer windows -->
  <path d="M 1060 310 L 1060 340 Q 1068 352 1076 340 L 1076 310 Z" fill="#1A1408"/>
  <path d="M 1060 310 L 1068 298 L 1076 310 Z" fill="#0E0A06"/>
  <path d="M 1136 302 L 1136 332 Q 1144 344 1152 332 L 1152 302 Z" fill="#1A1408"/>
  <path d="M 1136 302 L 1144 290 L 1152 302 Z" fill="#0E0A06"/>
  <!-- Facade windows - arched -->
  <path d="M 920 400 L 920 440 Q 935 460 950 440 L 950 400 Z" fill="#2A1E10" opacity="0.6"/>
  <path d="M 960 400 L 960 440 Q 975 460 990 440 L 990 400 Z" fill="#E8A840" opacity="0.15"/>
  <path d="M 1000 400 L 1000 440 Q 1015 460 1030 440 L 1030 400 Z" fill="#2A1E10" opacity="0.6"/>
  <path d="M 1040 400 L 1040 440 Q 1055 460 1070 440 L 1070 400 Z" fill="#E8A840" opacity="0.18"/>
  <path d="M 1080 400 L 1080 440 Q 1095 460 1110 440 L 1110 400 Z" fill="#2A1E10" opacity="0.6"/>
  <path d="M 1120 400 L 1120 440 Q 1135 460 1150 440 L 1150 400 Z" fill="#E8A840" opacity="0.15"/>
  <path d="M 1160 400 L 1160 440 Q 1175 460 1190 440 L 1190 400 Z" fill="#2A1E10" opacity="0.6"/>
  <path d="M 1200 400 L 1200 440 Q 1215 460 1230 440 L 1230 400 Z" fill="#E8A840" opacity="0.2"/>
  <path d="M 1240 400 L 1240 440 Q 1255 460 1270 440 L 1270 400 Z" fill="#2A1E10" opacity="0.6"/>
  <!-- Second floor windows -->
  <path d="M 920 470 L 920 510 Q 935 530 950 510 L 950 470 Z" fill="#E8A840" opacity="0.18"/>
  <path d="M 970 470 L 970 510 Q 985 530 1000 510 L 1000 470 Z" fill="#2A1E10" opacity="0.6"/>
  <path d="M 1020 470 L 1020 510 Q 1035 530 1050 510 L 1050 470 Z" fill="#E8A840" opacity="0.22"/>
  <path d="M 1070 470 L 1070 510 Q 1085 530 1100 510 L 1100 470 Z" fill="#2A1E10" opacity="0.6"/>
  <path d="M 1120 470 L 1120 510 Q 1135 530 1150 510 L 1150 470 Z" fill="#E8A840" opacity="0.15"/>
  <path d="M 1170 470 L 1170 510 Q 1185 530 1200 510 L 1200 470 Z" fill="#E8A840" opacity="0.2"/>
  <path d="M 1220 470 L 1220 510 Q 1235 530 1250 510 L 1250 470 Z" fill="#2A1E10" opacity="0.6"/>
  <path d="M 1270 470 L 1270 510 Q 1285 530 1300 510 L 1300 470 Z" fill="#E8A840" opacity="0.18"/>
  <!-- Ground floor entrance -->
  <rect x="1070" y="570" width="60" height="110" fill="#2A1E10" opacity="0.7"/>
  <path d="M 1070 570 Q 1100 548 1130 570 Z" fill="#1A1408"/>
  <!-- Palm trees flanking -->
  <g opacity="0.5">
    <!-- Left palm -->
    <rect x="866" y="560" width="8" height="120" fill="#2A2018"/>
    <ellipse cx="870" cy="550" rx="32" ry="20" fill="#2A3818" transform="rotate(-15, 870, 550)"/>
    <ellipse cx="870" cy="548" rx="28" ry="16" fill="#2A3818" transform="rotate(5, 870, 548)"/>
    <ellipse cx="870" cy="552" rx="24" ry="14" fill="#2A3818" transform="rotate(25, 870, 552)"/>
    <!-- Right palm -->
    <rect x="1312" y="556" width="8" height="124" fill="#2A2018"/>
    <ellipse cx="1316" cy="546" rx="32" ry="20" fill="#2A3818" transform="rotate(15, 1316, 546)"/>
    <ellipse cx="1316" cy="544" rx="28" ry="16" fill="#2A3818" transform="rotate(-5, 1316, 544)"/>
    <ellipse cx="1316" cy="548" rx="24" ry="14" fill="#2A3818" transform="rotate(-25, 1316, 548)"/>
  </g>

  <!-- Driveway / ground -->
  <rect x="780" y="680" width="820" height="20" fill="#14100C"/>
  <line x1="1000" y1="682" x2="1200" y2="700" stroke="#E8A840" stroke-width="1" opacity="0.12"/>
  <line x1="1050" y1="682" x2="1150" y2="700" stroke="#E8A840" stroke-width="0.5" opacity="0.08"/>

  <!-- Amber light spill on ground -->
  <ellipse cx="1100" cy="690" rx="200" ry="20" fill="#E8A840" opacity="0.05"/>

  <!-- Left text fade -->
  <rect x="0" y="0" width="820" height="900" fill="#100C08" opacity="0.72"/>

  <!-- XRED EYEZ label -->
  <text x="68" y="90" font-family="'Courier New', monospace" font-size="12" fill="#E8A840" letter-spacing="4" opacity="0.85">XRED EYEZ SELECT</text>

  <!-- Wordmark -->
  <text x="64" y="218" font-family="Georgia, 'Times New Roman', serif" font-size="52" fill="#F5F0E6" font-weight="700" letter-spacing="-0.5">CHÂTEAU</text>
  <text x="64" y="294" font-family="Georgia, 'Times New Roman', serif" font-size="52" fill="#F5F0E6" font-weight="700" letter-spacing="-0.5">MARMONT</text>

  <!-- Tagline -->
  <text x="68" y="346" font-family="'Courier New', monospace" font-size="13" fill="#E8A840" letter-spacing="1" opacity="0.9">Sunset Strip legend. Est. 1929.</text>
  <rect x="68" y="366" width="200" height="1.5" fill="url(#amber)" opacity="0.7"/>

  <text x="68" y="404" font-family="'Courier New', monospace" font-size="11" fill="rgba(245,240,230,0.38)" letter-spacing="1">West Hollywood · Hotel · Est. 1929</text>

  <text x="68" y="850" font-family="'Courier New', monospace" font-size="10" fill="rgba(232,168,64,0.35)" letter-spacing="3">LOS ANGELES</text>
</svg>
