<svg xmlns="http://www.w3.org/2000/svg" viewBox="0 0 1600 900">
  <defs>
    <linearGradient id="bg" x1="0" y1="0" x2="1" y2="1">
      <stop offset="0%" stop-color="#0C0E0F"/>
      <stop offset="100%" stop-color="#181C1E"/>
    </linearGradient>
  </defs>
  <rect width="1600" height="900" fill="url(#bg)"/>

  <!-- Conservatorium — glass atrium grid -->
  <g opacity="0.7">
    <!-- Atrium glass ceiling structure -->
    <!-- Horizontal beams -->
    <line x1="780" y1="180" x2="1580" y2="180" stroke="#C8C0B0" stroke-width="2"/>
    <line x1="780" y1="280" x2="1580" y2="280" stroke="#C8C0B0" stroke-width="1.5"/>
    <line x1="780" y1="380" x2="1580" y2="380" stroke="#C8C0B0" stroke-width="1.5"/>
    <line x1="780" y1="480" x2="1580" y2="480" stroke="#C8C0B0" stroke-width="1.5"/>
    <line x1="780" y1="580" x2="1580" y2="580" stroke="#C8C0B0" stroke-width="1.5"/>
    <line x1="780" y1="680" x2="1580" y2="680" stroke="#C8C0B0" stroke-width="2"/>

    <!-- Vertical beams -->
    <line x1="780" y1="180" x2="780" y2="680" stroke="#C8C0B0" stroke-width="2"/>
    <line x1="940" y1="180" x2="940" y2="680" stroke="#C8C0B0" stroke-width="1.5"/>
    <line x1="1100" y1="180" x2="1100" y2="680" stroke="#C8C0B0" stroke-width="1.5"/>
    <line x1="1260" y1="180" x2="1260" y2="680" stroke="#C8C0B0" stroke-width="1.5"/>
    <line x1="1420" y1="180" x2="1420" y2="680" stroke="#C8C0B0" stroke-width="1.5"/>
    <line x1="1580" y1="180" x2="1580" y2="680" stroke="#C8C0B0" stroke-width="2"/>

    <!-- Diamond diagonal lines in panels -->
    <line x1="780" y1="180" x2="940" y2="280" stroke="#C8C0B0" stroke-width="0.8" opacity="0.5"/>
    <line x1="940" y1="180" x2="780" y2="280" stroke="#C8C0B0" stroke-width="0.8" opacity="0.5"/>
    <line x1="940" y1="180" x2="1100" y2="280" stroke="#C8C0B0" stroke-width="0.8" opacity="0.5"/>
    <line x1="1100" y1="180" x2="940" y2="280" stroke="#C8C0B0" stroke-width="0.8" opacity="0.5"/>
    <line x1="1100" y1="180" x2="1260" y2="280" stroke="#C8C0B0" stroke-width="0.8" opacity="0.5"/>
    <line x1="1260" y1="180" x2="1100" y2="280" stroke="#C8C0B0" stroke-width="0.8" opacity="0.5"/>
    <line x1="1260" y1="180" x2="1420" y2="280" stroke="#C8C0B0" stroke-width="0.8" opacity="0.5"/>
    <line x1="1420" y1="180" x2="1260" y2="280" stroke="#C8C0B0" stroke-width="0.8" opacity="0.5"/>
    <line x1="1420" y1="180" x2="1580" y2="280" stroke="#C8C0B0" stroke-width="0.8" opacity="0.5"/>
    <line x1="1580" y1="180" x2="1420" y2="280" stroke="#C8C0B0" stroke-width="0.8" opacity="0.5"/>

    <line x1="780" y1="280" x2="940" y2="380" stroke="#C8C0B0" stroke-width="0.8" opacity="0.4"/>
    <line x1="940" y1="280" x2="780" y2="380" stroke="#C8C0B0" stroke-width="0.8" opacity="0.4"/>
    <line x1="940" y1="280" x2="1100" y2="380" stroke="#C8C0B0" stroke-width="0.8" opacity="0.4"/>
    <line x1="1100" y1="280" x2="940" y2="380" stroke="#C8C0B0" stroke-width="0.8" opacity="0.4"/>
    <line x1="1100" y1="280" x2="1260" y2="380" stroke="#C8C0B0" stroke-width="0.8" opacity="0.4"/>
    <line x1="1260" y1="280" x2="1100" y2="380" stroke="#C8C0B0" stroke-width="0.8" opacity="0.4"/>
    <line x1="1260" y1="280" x2="1420" y2="380" stroke="#C8C0B0" stroke-width="0.8" opacity="0.4"/>
    <line x1="1420" y1="280" x2="1260" y2="380" stroke="#C8C0B0" stroke-width="0.8" opacity="0.4"/>
    <line x1="1420" y1="280" x2="1580" y2="380" stroke="#C8C0B0" stroke-width="0.8" opacity="0.4"/>
    <line x1="1580" y1="280" x2="1420" y2="380" stroke="#C8C0B0" stroke-width="0.8" opacity="0.4"/>

    <line x1="780" y1="380" x2="940" y2="480" stroke="#C8C0B0" stroke-width="0.8" opacity="0.35"/>
    <line x1="940" y1="380" x2="780" y2="480" stroke="#C8C0B0" stroke-width="0.8" opacity="0.35"/>
    <line x1="940" y1="380" x2="1100" y2="480" stroke="#C8C0B0" stroke-width="0.8" opacity="0.35"/>
    <line x1="1100" y1="380" x2="940" y2="480" stroke="#C8C0B0" stroke-width="0.8" opacity="0.35"/>
    <line x1="1100" y1="380" x2="1260" y2="480" stroke="#C8C0B0" stroke-width="0.8" opacity="0.35"/>
    <line x1="1260" y1="380" x2="1100" y2="480" stroke="#C8C0B0" stroke-width="0.8" opacity="0.35"/>

    <line x1="780" y1="480" x2="940" y2="580" stroke="#C8C0B0" stroke-width="0.8" opacity="0.3"/>
    <line x1="940" y1="480" x2="780" y2="580" stroke="#C8C0B0" stroke-width="0.8" opacity="0.3"/>
    <line x1="940" y1="480" x2="1100" y2="580" stroke="#C8C0B0" stroke-width="0.8" opacity="0.3"/>
    <line x1="1100" y1="480" x2="940" y2="580" stroke="#C8C0B0" stroke-width="0.8" opacity="0.3"/>

    <line x1="780" y1="580" x2="940" y2="680" stroke="#C8C0B0" stroke-width="0.8" opacity="0.25"/>
    <line x1="940" y1="580" x2="780" y2="680" stroke="#C8C0B0" stroke-width="0.8" opacity="0.25"/>
    <line x1="940" y1="580" x2="1100" y2="680" stroke="#C8C0B0" stroke-width="0.8" opacity="0.25"/>
    <line x1="1100" y1="580" x2="940" y2="680" stroke="#C8C0B0" stroke-width="0.8" opacity="0.25"/>
  </g>

  <!-- Fade overlay on grid -->
  <rect x="780" y="0" width="820" height="900" fill="#0C0E0F" opacity="0.35"/>

  <!-- XRED EYEZ label -->
  <text x="68" y="90" font-family="'Courier New', monospace" font-size="12" fill="rgba(200,192,176,0.7)" letter-spacing="4">XRED EYEZ SELECT</text>

  <!-- Wordmark -->
  <text x="64" y="218" font-family="Georgia, 'Times New Roman', serif" font-size="58" fill="#F5F0E6" font-weight="700" letter-spacing="-0.5">CONSERVATORIUM</text>
  <text x="64" y="290" font-family="Georgia, 'Times New Roman', serif" font-size="58" fill="#F5F0E6" font-weight="700" letter-spacing="-0.5">HOTEL</text>

  <!-- Tagline -->
  <text x="68" y="342" font-family="'Courier New', monospace" font-size="13" fill="rgba(200,192,176,0.75)" letter-spacing="1">Glass atrium. Oud-Zuid. Luxury design hotel.</text>

  <!-- Divider -->
  <rect x="68" y="362" width="200" height="1.5" fill="#C8C0B0" opacity="0.6"/>

  <!-- Sub -->
  <text x="68" y="398" font-family="'Courier New', monospace" font-size="11" fill="rgba(245,240,230,0.4)" letter-spacing="1">Oud-Zuid · Hotel · 5-Star</text>

  <!-- Bottom -->
  <text x="68" y="850" font-family="'Courier New', monospace" font-size="10" fill="rgba(200,192,176,0.3)" letter-spacing="3">AMSTERDAM</text>
</svg>
