<svg xmlns="http://www.w3.org/2000/svg" viewBox="0 0 1600 900">
  <defs>
    <linearGradient id="bg" x1="0" y1="0" x2="1" y2="1">
      <stop offset="0%" stop-color="#0C0A06"/>
      <stop offset="100%" stop-color="#090805"/>
    </linearGradient>
  </defs>
  <rect width="1600" height="900" fill="url(#bg)"/>

  <!-- texture lines -->
  <g opacity="0.06" stroke="#D07830" stroke-width="0.5">
    <line x1="0" y1="160" x2="1600" y2="220"/>
    <line x1="0" y1="340" x2="1600" y2="300"/>
    <line x1="0" y1="520" x2="1600" y2="560"/>
    <line x1="0" y1="720" x2="1600" y2="680"/>
  </g>

  <g opacity="0.45"><rect x="700" y="540" width="900" height="220" fill="#3e240e" opacity="0.45"/><line x1="700" y1="540" x2="1600" y2="540" stroke="#D07830" stroke-width="1" opacity="0.4"/><circle cx="880" cy="640" r="78" fill="none" stroke="#D07830" stroke-width="1.5" opacity="0.7"/><circle cx="880" cy="640" r="58" fill="none" stroke="#D07830" stroke-width="1" opacity="0.5"/><rect x="770" y="604" width="3" height="72" fill="#D07830" opacity="0.55"/><rect x="988" y="604" width="3" height="72" fill="#D07830" opacity="0.55"/><path d="M854,530 L906,530 L898,580 L862,580 Z" fill="none" stroke="#D07830" stroke-width="1" opacity="0.5"/><rect x="877" y="580" width="6" height="18" fill="#D07830" opacity="0.4"/><circle cx="1140" cy="640" r="78" fill="none" stroke="#D07830" stroke-width="1.5" opacity="0.7"/><circle cx="1140" cy="640" r="58" fill="none" stroke="#D07830" stroke-width="1" opacity="0.5"/><rect x="1030" y="604" width="3" height="72" fill="#D07830" opacity="0.55"/><rect x="1248" y="604" width="3" height="72" fill="#D07830" opacity="0.55"/><path d="M1114,530 L1166,530 L1158,580 L1122,580 Z" fill="none" stroke="#D07830" stroke-width="1" opacity="0.5"/><rect x="1137" y="580" width="6" height="18" fill="#D07830" opacity="0.4"/><circle cx="1400" cy="640" r="78" fill="none" stroke="#D07830" stroke-width="1.5" opacity="0.7"/><circle cx="1400" cy="640" r="58" fill="none" stroke="#D07830" stroke-width="1" opacity="0.5"/><rect x="1290" y="604" width="3" height="72" fill="#D07830" opacity="0.55"/><rect x="1508" y="604" width="3" height="72" fill="#D07830" opacity="0.55"/><path d="M1374,530 L1426,530 L1418,580 L1382,580 Z" fill="none" stroke="#D07830" stroke-width="1" opacity="0.5"/><rect x="1397" y="580" width="6" height="18" fill="#D07830" opacity="0.4"/></g>

  <!-- left text overlay -->
  <rect x="0" y="0" width="780" height="900" fill="#0C0A06" opacity="0.82"/>

  <!-- XRED EYEZ label -->
  <text x="68" y="92" font-family="'Courier New', monospace" font-size="12" fill="#D07830" letter-spacing="4" opacity="0.9">XRED EYEZ CULTURE</text>

  <!-- Wordmark -->
  <text x="64" y="222" font-family="Georgia, 'Times New Roman', serif" font-size="78" fill="#F5F0E6" font-weight="700" letter-spacing="-1">GIRL &amp;</text>
  <text x="64" y="308" font-family="Georgia, 'Times New Roman', serif" font-size="78" fill="#F5F0E6" font-weight="700" letter-spacing="-1">THE GOAT</text>

  <!-- Accent strip -->
  <text x="68" y="372" font-family="'Courier New', monospace" font-size="13" fill="#D07830" letter-spacing="1" opacity="0.92">Top Chef winner. Wood-roasted. West Loop anchor.</text>
  <rect x="68" y="390" width="180" height="2.5" fill="#D07830" opacity="0.85"/>

  <text x="68" y="430" font-family="'Courier New', monospace" font-size="11" fill="rgba(245,240,230,0.4)" letter-spacing="1">West Loop / Fulton Market · Restaurant</text>

  <text x="68" y="852" font-family="'Courier New', monospace" font-size="10" fill="#D07830" letter-spacing="3" opacity="0.45">USA</text>
</svg>
