<svg xmlns="http://www.w3.org/2000/svg" viewBox="0 0 1600 900">
  <defs>
    <linearGradient id="bg" x1="0" y1="0" x2="1" y2="1">
      <stop offset="0%" stop-color="#0D110E"/>
      <stop offset="100%" stop-color="#141A15"/>
    </linearGradient>
  </defs>
  <rect width="1600" height="900" fill="url(#bg)"/>

  <!-- Grunge texture lines -->
  <g opacity="0.08" stroke="#84C51F" stroke-width="0.5">
    <line x1="0" y1="150" x2="1600" y2="200"/>
    <line x1="0" y1="320" x2="1600" y2="280"/>
    <line x1="0" y1="500" x2="1600" y2="540"/>
    <line x1="0" y1="700" x2="1600" y2="660"/>
  </g>

  <!-- Right panel — Amsterdam canal row silhouette -->
  <g opacity="0.5">
    <!-- Row of canal houses -->
    <!-- House 1 -->
    <rect x="800" y="420" width="80" height="260" fill="#1A2A1A"/>
    <polygon points="800,420 840,360 880,420" fill="#1A2A1A"/>
    <!-- Windows h1 -->
    <rect x="815" y="435" width="22" height="30" fill="#84C51F" opacity="0.25"/>
    <rect x="845" y="435" width="22" height="30" fill="#84C51F" opacity="0.18"/>
    <rect x="815" y="480" width="22" height="30" fill="#84C51F" opacity="0.2"/>
    <rect x="845" y="480" width="22" height="30" fill="#84C51F" opacity="0.28"/>
    <rect x="815" y="525" width="22" height="30" fill="#84C51F" opacity="0.15"/>
    <rect x="845" y="525" width="22" height="30" fill="#84C51F" opacity="0.22"/>
    <!-- Door h1 -->
    <rect x="825" y="630" width="30" height="50" fill="#84C51F" opacity="0.18"/>

    <!-- House 2 -->
    <rect x="890" y="460" width="70" height="220" fill="#162216"/>
    <polygon points="890,460 925,400 960,460" fill="#162216"/>
    <rect x="903" y="474" width="18" height="26" fill="#84C51F" opacity="0.2"/>
    <rect x="929" y="474" width="18" height="26" fill="#84C51F" opacity="0.15"/>
    <rect x="903" y="512" width="18" height="26" fill="#84C51F" opacity="0.18"/>
    <rect x="929" y="512" width="18" height="26" fill="#84C51F" opacity="0.25"/>
    <rect x="916" y="618" width="24" height="42" fill="#84C51F" opacity="0.15"/>

    <!-- House 3 — taller -->
    <rect x="970" y="390" width="90" height="290" fill="#1E2E1E"/>
    <polygon points="970,390 1015,318 1060,390" fill="#1E2E1E"/>
    <rect x="985" y="406" width="24" height="32" fill="#84C51F" opacity="0.22"/>
    <rect x="1021" y="406" width="24" height="32" fill="#84C51F" opacity="0.3"/>
    <rect x="985" y="452" width="24" height="32" fill="#84C51F" opacity="0.18"/>
    <rect x="1021" y="452" width="24" height="32" fill="#84C51F" opacity="0.2"/>
    <rect x="985" y="498" width="24" height="32" fill="#84C51F" opacity="0.25"/>
    <rect x="1021" y="498" width="24" height="32" fill="#84C51F" opacity="0.15"/>
    <rect x="995" y="628" width="30" height="52" fill="#84C51F" opacity="0.18"/>

    <!-- House 4 -->
    <rect x="1070" y="440" width="75" height="240" fill="#162216"/>
    <polygon points="1070,440 1107,378 1145,440" fill="#162216"/>
    <rect x="1083" y="455" width="20" height="28" fill="#84C51F" opacity="0.2"/>
    <rect x="1112" y="455" width="20" height="28" fill="#84C51F" opacity="0.25"/>
    <rect x="1083" y="496" width="20" height="28" fill="#84C51F" opacity="0.18"/>
    <rect x="1112" y="496" width="20" height="28" fill="#84C51F" opacity="0.15"/>
    <rect x="1088" y="622" width="28" height="58" fill="#84C51F" opacity="0.15"/>

    <!-- House 5 -->
    <rect x="1155" y="470" width="70" height="210" fill="#1A2A1A"/>
    <polygon points="1155,470 1190,416 1225,470" fill="#1A2A1A"/>
    <rect x="1167" y="484" width="18" height="26" fill="#84C51F" opacity="0.22"/>
    <rect x="1194" y="484" width="18" height="26" fill="#84C51F" opacity="0.18"/>
    <rect x="1167" y="522" width="18" height="26" fill="#84C51F" opacity="0.2"/>
    <rect x="1194" y="522" width="18" height="26" fill="#84C51F" opacity="0.28"/>
    <rect x="1173" y="622" width="28" height="58" fill="#84C51F" opacity="0.15"/>

    <!-- House 6 -->
    <rect x="1235" y="450" width="80" height="230" fill="#162216"/>
    <polygon points="1235,450 1275,388 1315,450" fill="#162216"/>
    <rect x="1250" y="465" width="22" height="30" fill="#84C51F" opacity="0.2"/>
    <rect x="1280" y="465" width="22" height="30" fill="#84C51F" opacity="0.25"/>
    <rect x="1250" y="508" width="22" height="30" fill="#84C51F" opacity="0.18"/>
    <rect x="1280" y="508" width="22" height="30" fill="#84C51F" opacity="0.15"/>
    <rect x="1258" y="622" width="30" height="58" fill="#84C51F" opacity="0.15"/>

    <!-- House 7 -->
    <rect x="1325" y="430" width="90" height="250" fill="#1E2E1E"/>
    <polygon points="1325,430 1370,360 1415,430" fill="#1E2E1E"/>
    <rect x="1340" y="446" width="24" height="32" fill="#84C51F" opacity="0.22"/>
    <rect x="1378" y="446" width="24" height="32" fill="#84C51F" opacity="0.18"/>
    <rect x="1340" y="492" width="24" height="32" fill="#84C51F" opacity="0.3"/>
    <rect x="1378" y="492" width="24" height="32" fill="#84C51F" opacity="0.2"/>
    <rect x="1352" y="622" width="34" height="58" fill="#84C51F" opacity="0.15"/>

    <!-- Canal water -->
    <rect x="800" y="680" width="800" height="80" fill="#0D180D" opacity="0.6"/>
    <line x1="850" y1="700" x2="1550" y2="700" stroke="#84C51F" stroke-width="0.8" opacity="0.12"/>
    <line x1="900" y1="720" x2="1500" y2="720" stroke="#84C51F" stroke-width="0.6" opacity="0.08"/>
  </g>

  <!-- Left text overlay -->
  <rect x="0" y="0" width="820" height="900" fill="#0D110E" opacity="0.78"/>

  <!-- Grain -->
  <rect width="1600" height="900" fill="url(#bg)" opacity="0.15"/>

  <!-- XRED EYEZ label -->
  <text x="68" y="90" font-family="'Courier New', monospace" font-size="12" fill="#84C51F" letter-spacing="4" opacity="0.9">XRED EYEZ CULTURE</text>

  <!-- Wordmark -->
  <text x="64" y="220" font-family="Georgia, 'Times New Roman', serif" font-size="86" fill="#F5F0E6" font-weight="700" letter-spacing="-1">GREY</text>
  <text x="64" y="312" font-family="Georgia, 'Times New Roman', serif" font-size="86" fill="#F5F0E6" font-weight="700" letter-spacing="-1">AREA</text>

  <!-- Green accent -->
  <text x="68" y="362" font-family="'Courier New', monospace" font-size="13" fill="#84C51F" letter-spacing="1" opacity="0.9">American genetics. Jordaan institution.</text>
  <rect x="68" y="382" width="180" height="2.5" fill="#84C51F" opacity="0.8"/>

  <text x="68" y="420" font-family="'Courier New', monospace" font-size="11" fill="rgba(245,240,230,0.4)" letter-spacing="1">Jordaan · Cannabis · Est. 1994</text>

  <text x="68" y="850" font-family="'Courier New', monospace" font-size="10" fill="rgba(132,197,31,0.35)" letter-spacing="3">AMSTERDAM</text>
</svg>
