<svg xmlns="http://www.w3.org/2000/svg" viewBox="0 0 1600 900">
  <defs>
    <linearGradient id="bg" x1="0" y1="0" x2="1" y2="1">
      <stop offset="0%" stop-color="#0C0A08"/>
      <stop offset="100%" stop-color="#090806"/>
    </linearGradient>
  </defs>
  <rect width="1600" height="900" fill="url(#bg)"/>

  <!-- texture lines -->
  <g opacity="0.06" stroke="#C8A860" stroke-width="0.5">
    <line x1="0" y1="160" x2="1600" y2="220"/>
    <line x1="0" y1="340" x2="1600" y2="300"/>
    <line x1="0" y1="520" x2="1600" y2="560"/>
    <line x1="0" y1="720" x2="1600" y2="680"/>
  </g>

  <g opacity="0.5"><rect x="790" y="280" width="110" height="480" fill="#241e11" opacity="0.55"/><rect x="798" y="296" width="14" height="20" fill="#C8A860" opacity="0.18"/><rect x="842" y="296" width="14" height="20" fill="#C8A860" opacity="0.18"/><rect x="820" y="328" width="14" height="20" fill="#C8A860" opacity="0.24"/><rect x="864" y="328" width="14" height="20" fill="#C8A860" opacity="0.24"/><rect x="842" y="360" width="14" height="20" fill="#C8A860" opacity="0.3"/><rect x="798" y="392" width="14" height="20" fill="#C8A860" opacity="0.18"/><rect x="864" y="392" width="14" height="20" fill="#C8A860" opacity="0.18"/><rect x="820" y="424" width="14" height="20" fill="#C8A860" opacity="0.24"/><rect x="798" y="456" width="14" height="20" fill="#C8A860" opacity="0.3"/><rect x="842" y="456" width="14" height="20" fill="#C8A860" opacity="0.3"/><rect x="820" y="488" width="14" height="20" fill="#C8A860" opacity="0.18"/><rect x="864" y="488" width="14" height="20" fill="#C8A860" opacity="0.18"/><rect x="842" y="520" width="14" height="20" fill="#C8A860" opacity="0.24"/><rect x="798" y="552" width="14" height="20" fill="#C8A860" opacity="0.3"/><rect x="864" y="552" width="14" height="20" fill="#C8A860" opacity="0.3"/><rect x="820" y="584" width="14" height="20" fill="#C8A860" opacity="0.18"/><rect x="798" y="616" width="14" height="20" fill="#C8A860" opacity="0.24"/><rect x="842" y="616" width="14" height="20" fill="#C8A860" opacity="0.24"/><rect x="820" y="648" width="14" height="20" fill="#C8A860" opacity="0.3"/><rect x="864" y="648" width="14" height="20" fill="#C8A860" opacity="0.3"/><rect x="842" y="680" width="14" height="20" fill="#C8A860" opacity="0.18"/><rect x="798" y="712" width="14" height="20" fill="#C8A860" opacity="0.24"/><rect x="864" y="712" width="14" height="20" fill="#C8A860" opacity="0.24"/><rect x="920" y="380" width="90" height="380" fill="#1f1a0f" opacity="0.55"/><rect x="928" y="396" width="14" height="20" fill="#C8A860" opacity="0.18"/><rect x="972" y="396" width="14" height="20" fill="#C8A860" opacity="0.18"/><rect x="950" y="428" width="14" height="20" fill="#C8A860" opacity="0.24"/><rect x="972" y="460" width="14" height="20" fill="#C8A860" opacity="0.3"/><rect x="928" y="492" width="14" height="20" fill="#C8A860" opacity="0.18"/><rect x="950" y="524" width="14" height="20" fill="#C8A860" opacity="0.24"/><rect x="928" y="556" width="14" height="20" fill="#C8A860" opacity="0.3"/><rect x="972" y="556" width="14" height="20" fill="#C8A860" opacity="0.3"/><rect x="950" y="588" width="14" height="20" fill="#C8A860" opacity="0.18"/><rect x="972" y="620" width="14" height="20" fill="#C8A860" opacity="0.24"/><rect x="928" y="652" width="14" height="20" fill="#C8A860" opacity="0.3"/><rect x="950" y="684" width="14" height="20" fill="#C8A860" opacity="0.18"/><rect x="1030" y="180" width="140" height="580" fill="#282113" opacity="0.55"/><rect x="1038" y="196" width="14" height="20" fill="#C8A860" opacity="0.18"/><rect x="1082" y="196" width="14" height="20" fill="#C8A860" opacity="0.18"/><rect x="1060" y="228" width="14" height="20" fill="#C8A860" opacity="0.24"/><rect x="1104" y="228" width="14" height="20" fill="#C8A860" opacity="0.24"/><rect x="1082" y="260" width="14" height="20" fill="#C8A860" opacity="0.3"/><rect x="1126" y="260" width="14" height="20" fill="#C8A860" opacity="0.3"/><rect x="1038" y="292" width="14" height="20" fill="#C8A860" opacity="0.18"/><rect x="1104" y="292" width="14" height="20" fill="#C8A860" opacity="0.18"/><rect x="1060" y="324" width="14" height="20" fill="#C8A860" opacity="0.24"/><rect x="1126" y="324" width="14" height="20" fill="#C8A860" opacity="0.24"/><rect x="1038" y="356" width="14" height="20" fill="#C8A860" opacity="0.3"/><rect x="1082" y="356" width="14" height="20" fill="#C8A860" opacity="0.3"/><rect x="1060" y="388" width="14" height="20" fill="#C8A860" opacity="0.18"/><rect x="1104" y="388" width="14" height="20" fill="#C8A860" opacity="0.18"/><rect x="1082" y="420" width="14" height="20" fill="#C8A860" opacity="0.24"/><rect x="1126" y="420" width="14" height="20" fill="#C8A860" opacity="0.24"/><rect x="1038" y="452" width="14" height="20" fill="#C8A860" opacity="0.3"/><rect x="1104" y="452" width="14" height="20" fill="#C8A860" opacity="0.3"/><rect x="1060" y="484" width="14" height="20" fill="#C8A860" opacity="0.18"/><rect x="1126" y="484" width="14" height="20" fill="#C8A860" opacity="0.18"/><rect x="1038" y="516" width="14" height="20" fill="#C8A860" opacity="0.24"/><rect x="1082" y="516" width="14" height="20" fill="#C8A860" opacity="0.24"/><rect x="1060" y="548" width="14" height="20" fill="#C8A860" opacity="0.3"/><rect x="1104" y="548" width="14" height="20" fill="#C8A860" opacity="0.3"/><rect x="1082" y="580" width="14" height="20" fill="#C8A860" opacity="0.18"/><rect x="1126" y="580" width="14" height="20" fill="#C8A860" opacity="0.18"/><rect x="1038" y="612" width="14" height="20" fill="#C8A860" opacity="0.24"/><rect x="1104" y="612" width="14" height="20" fill="#C8A860" opacity="0.24"/><rect x="1060" y="644" width="14" height="20" fill="#C8A860" opacity="0.3"/><rect x="1126" y="644" width="14" height="20" fill="#C8A860" opacity="0.3"/><rect x="1038" y="676" width="14" height="20" fill="#C8A860" opacity="0.18"/><rect x="1082" y="676" width="14" height="20" fill="#C8A860" opacity="0.18"/><rect x="1060" y="708" width="14" height="20" fill="#C8A860" opacity="0.24"/><rect x="1104" y="708" width="14" height="20" fill="#C8A860" opacity="0.24"/><rect x="1190" y="340" width="100" height="420" fill="#201b10" opacity="0.55"/><rect x="1198" y="356" width="14" height="20" fill="#C8A860" opacity="0.18"/><rect x="1242" y="356" width="14" height="20" fill="#C8A860" opacity="0.18"/><rect x="1220" y="388" width="14" height="20" fill="#C8A860" opacity="0.24"/><rect x="1242" y="420" width="14" height="20" fill="#C8A860" opacity="0.3"/><rect x="1198" y="452" width="14" height="20" fill="#C8A860" opacity="0.18"/><rect x="1220" y="484" width="14" height="20" fill="#C8A860" opacity="0.24"/><rect x="1198" y="516" width="14" height="20" fill="#C8A860" opacity="0.3"/><rect x="1242" y="516" width="14" height="20" fill="#C8A860" opacity="0.3"/><rect x="1220" y="548" width="14" height="20" fill="#C8A860" opacity="0.18"/><rect x="1242" y="580" width="14" height="20" fill="#C8A860" opacity="0.24"/><rect x="1198" y="612" width="14" height="20" fill="#C8A860" opacity="0.3"/><rect x="1220" y="644" width="14" height="20" fill="#C8A860" opacity="0.18"/><rect x="1198" y="676" width="14" height="20" fill="#C8A860" opacity="0.24"/><rect x="1242" y="676" width="14" height="20" fill="#C8A860" opacity="0.24"/><rect x="1220" y="708" width="14" height="20" fill="#C8A860" opacity="0.3"/><rect x="1310" y="220" width="130" height="540" fill="#262012" opacity="0.55"/><rect x="1318" y="236" width="14" height="20" fill="#C8A860" opacity="0.18"/><rect x="1362" y="236" width="14" height="20" fill="#C8A860" opacity="0.18"/><rect x="1340" y="268" width="14" height="20" fill="#C8A860" opacity="0.24"/><rect x="1384" y="268" width="14" height="20" fill="#C8A860" opacity="0.24"/><rect x="1362" y="300" width="14" height="20" fill="#C8A860" opacity="0.3"/><rect x="1406" y="300" width="14" height="20" fill="#C8A860" opacity="0.3"/><rect x="1318" y="332" width="14" height="20" fill="#C8A860" opacity="0.18"/><rect x="1384" y="332" width="14" height="20" fill="#C8A860" opacity="0.18"/><rect x="1340" y="364" width="14" height="20" fill="#C8A860" opacity="0.24"/><rect x="1406" y="364" width="14" height="20" fill="#C8A860" opacity="0.24"/><rect x="1318" y="396" width="14" height="20" fill="#C8A860" opacity="0.3"/><rect x="1362" y="396" width="14" height="20" fill="#C8A860" opacity="0.3"/><rect x="1340" y="428" width="14" height="20" fill="#C8A860" opacity="0.18"/><rect x="1384" y="428" width="14" height="20" fill="#C8A860" opacity="0.18"/><rect x="1362" y="460" width="14" height="20" fill="#C8A860" opacity="0.24"/><rect x="1406" y="460" width="14" height="20" fill="#C8A860" opacity="0.24"/><rect x="1318" y="492" width="14" height="20" fill="#C8A860" opacity="0.3"/><rect x="1384" y="492" width="14" height="20" fill="#C8A860" opacity="0.3"/><rect x="1340" y="524" width="14" height="20" fill="#C8A860" opacity="0.18"/><rect x="1406" y="524" width="14" height="20" fill="#C8A860" opacity="0.18"/><rect x="1318" y="556" width="14" height="20" fill="#C8A860" opacity="0.24"/><rect x="1362" y="556" width="14" height="20" fill="#C8A860" opacity="0.24"/><rect x="1340" y="588" width="14" height="20" fill="#C8A860" opacity="0.3"/><rect x="1384" y="588" width="14" height="20" fill="#C8A860" opacity="0.3"/><rect x="1362" y="620" width="14" height="20" fill="#C8A860" opacity="0.18"/><rect x="1406" y="620" width="14" height="20" fill="#C8A860" opacity="0.18"/><rect x="1318" y="652" width="14" height="20" fill="#C8A860" opacity="0.24"/><rect x="1384" y="652" width="14" height="20" fill="#C8A860" opacity="0.24"/><rect x="1340" y="684" width="14" height="20" fill="#C8A860" opacity="0.3"/><rect x="1406" y="684" width="14" height="20" fill="#C8A860" opacity="0.3"/><rect x="1460" y="320" width="100" height="440" fill="#1f1a0f" opacity="0.55"/><rect x="1468" y="336" width="14" height="20" fill="#C8A860" opacity="0.18"/><rect x="1512" y="336" width="14" height="20" fill="#C8A860" opacity="0.18"/><rect x="1490" y="368" width="14" height="20" fill="#C8A860" opacity="0.24"/><rect x="1512" y="400" width="14" height="20" fill="#C8A860" opacity="0.3"/><rect x="1468" y="432" width="14" height="20" fill="#C8A860" opacity="0.18"/><rect x="1490" y="464" width="14" height="20" fill="#C8A860" opacity="0.24"/><rect x="1468" y="496" width="14" height="20" fill="#C8A860" opacity="0.3"/><rect x="1512" y="496" width="14" height="20" fill="#C8A860" opacity="0.3"/><rect x="1490" y="528" width="14" height="20" fill="#C8A860" opacity="0.18"/><rect x="1512" y="560" width="14" height="20" fill="#C8A860" opacity="0.24"/><rect x="1468" y="592" width="14" height="20" fill="#C8A860" opacity="0.3"/><rect x="1490" y="624" width="14" height="20" fill="#C8A860" opacity="0.18"/><rect x="1468" y="656" width="14" height="20" fill="#C8A860" opacity="0.24"/><rect x="1512" y="656" width="14" height="20" fill="#C8A860" opacity="0.24"/><rect x="1490" y="688" width="14" height="20" fill="#C8A860" opacity="0.3"/></g>

  <!-- left text overlay -->
  <rect x="0" y="0" width="780" height="900" fill="#0C0A08" opacity="0.82"/>

  <!-- XRED EYEZ label -->
  <text x="68" y="92" font-family="'Courier New', monospace" font-size="12" fill="#C8A860" letter-spacing="4" opacity="0.9">XRED EYEZ CULTURE</text>

  <!-- Wordmark -->
  <text x="64" y="222" font-family="Georgia, 'Times New Roman', serif" font-size="78" fill="#F5F0E6" font-weight="700" letter-spacing="-1">PALACE HOTEL</text>
  <text x="64" y="308" font-family="Georgia, 'Times New Roman', serif" font-size="78" fill="#F5F0E6" font-weight="700" letter-spacing="-1">SF</text>

  <!-- Accent strip -->
  <text x="68" y="372" font-family="'Courier New', monospace" font-size="13" fill="#C8A860" letter-spacing="1" opacity="0.92">Garden Court. Historic since 1875. Financial District.</text>
  <rect x="68" y="390" width="180" height="2.5" fill="#C8A860" opacity="0.85"/>

  <text x="68" y="430" font-family="'Courier New', monospace" font-size="11" fill="rgba(245,240,230,0.4)" letter-spacing="1">Financial District / SoMa · Historic Luxury Hotel</text>

  <text x="68" y="852" font-family="'Courier New', monospace" font-size="10" fill="#C8A860" letter-spacing="3" opacity="0.45">USA</text>
</svg>
