<svg xmlns="http://www.w3.org/2000/svg" viewBox="0 0 1600 900">
  <defs>
    <linearGradient id="bg" x1="0" y1="0" x2="1" y2="1">
      <stop offset="0%" stop-color="#0A0E12"/>
      <stop offset="100%" stop-color="#141C22"/>
    </linearGradient>
  </defs>
  <rect width="1600" height="900" fill="url(#bg)"/>

  <!-- Prinsengracht canal house row — 25 historic houses connected -->
  <!-- Canal water -->
  <rect x="750" y="660" width="850" height="100" fill="#0A1520"/>
  <!-- Water reflections -->
  <line x1="800" y1="680" x2="1550" y2="680" stroke="#4A7A9B" stroke-width="1.5" opacity="0.2"/>
  <line x1="850" y1="700" x2="1500" y2="700" stroke="#4A7A9B" stroke-width="1" opacity="0.15"/>
  <line x1="800" y1="720" x2="1550" y2="720" stroke="#4A7A9B" stroke-width="0.8" opacity="0.1"/>
  <!-- Embankment -->
  <rect x="750" y="650" width="850" height="14" fill="#14202A"/>
  <!-- Trees -->
  <ellipse cx="790" cy="628" rx="22" ry="30" fill="#0E2018"/>
  <rect x="785" y="640" width="10" height="18" fill="#0A180E"/>
  <ellipse cx="850" cy="634" rx="18" ry="24" fill="#102218"/>
  <ellipse cx="1480" cy="628" rx="22" ry="30" fill="#0E2018"/>
  <rect x="1475" y="640" width="10" height="18" fill="#0A180E"/>
  <ellipse cx="1540" cy="634" rx="18" ry="24" fill="#102218"/>

  <!-- Row of 7 canal houses across right panel -->
  <!-- House 1 -->
  <rect x="770" y="400" width="88" height="254" fill="#1A2830"/>
  <polygon points="770,400 814,338 858,400" fill="#142030"/>
  <polygon points="800,338 814,320 828,338" fill="#0E1828"/>
  <rect x="788" y="418" width="20" height="28" fill="#4A7A9B" opacity="0.4"/>
  <rect x="820" y="418" width="20" height="28" fill="#4A7A9B" opacity="0.6"/>
  <rect x="788" y="460" width="20" height="28" fill="#4A7A9B" opacity="0.5"/>
  <rect x="820" y="460" width="20" height="28" fill="#E8B048" opacity="0.25"/>
  <rect x="788" y="502" width="20" height="28" fill="#4A7A9B" opacity="0.4"/>
  <rect x="820" y="502" width="20" height="28" fill="#4A7A9B" opacity="0.55"/>
  <rect x="788" y="544" width="20" height="28" fill="#E8B048" opacity="0.22"/>
  <rect x="820" y="544" width="20" height="28" fill="#4A7A9B" opacity="0.45"/>
  <rect x="796" y="596" width="26" height="54" fill="#1A2830"/>
  <!-- House 2 -->
  <rect x="862" y="420" width="82" height="234" fill="#162432"/>
  <polygon points="862,420 903,360 944,420" fill="#10202A"/>
  <polygon points="892,360 903,344 914,360" fill="#0C1C26"/>
  <rect x="876" y="437" width="18" height="26" fill="#E8B048" opacity="0.28"/>
  <rect x="908" y="437" width="18" height="26" fill="#4A7A9B" opacity="0.5"/>
  <rect x="876" y="476" width="18" height="26" fill="#4A7A9B" opacity="0.42"/>
  <rect x="908" y="476" width="18" height="26" fill="#E8B048" opacity="0.2"/>
  <rect x="876" y="515" width="18" height="26" fill="#4A7A9B" opacity="0.48"/>
  <rect x="908" y="515" width="18" height="26" fill="#4A7A9B" opacity="0.35"/>
  <rect x="882" y="596" width="24" height="58" fill="#162432"/>
  <!-- House 3 - taller, stepped gable -->
  <rect x="948" y="370" width="94" height="284" fill="#1E2E38"/>
  <rect x="948" y="356" width="94" height="18" fill="#182830"/>
  <rect x="954" y="338" width="82" height="22" fill="#1E2E38"/>
  <rect x="962" y="320" width="66" height="22" fill="#182830"/>
  <rect x="970" y="304" width="50" height="20" fill="#1E2E38"/>
  <rect x="978" y="290" width="34" height="18" fill="#182830"/>
  <polygon points="984,290 995,270 1006,290" fill="#141E28"/>
  <rect x="963" y="390" width="22" height="30" fill="#E8B048" opacity="0.3"/>
  <rect x="1002" y="390" width="22" height="30" fill="#4A7A9B" opacity="0.55"/>
  <rect x="963" y="434" width="22" height="30" fill="#4A7A9B" opacity="0.45"/>
  <rect x="1002" y="434" width="22" height="30" fill="#E8B048" opacity="0.25"/>
  <rect x="963" y="478" width="22" height="30" fill="#4A7A9B" opacity="0.5"/>
  <rect x="1002" y="478" width="22" height="30" fill="#4A7A9B" opacity="0.38"/>
  <rect x="963" y="522" width="22" height="30" fill="#E8B048" opacity="0.2"/>
  <rect x="1002" y="522" width="22" height="30" fill="#4A7A9B" opacity="0.45"/>
  <rect x="971" y="600" width="30" height="54" fill="#1E2E38"/>
  <!-- Houses 4-7 (similar pattern) -->
  <rect x="1046" y="390" width="86" height="264" fill="#162432"/>
  <polygon points="1046,390 1089,328 1132,390" fill="#10202A"/>
  <rect x="1062" y="408" width="20" height="28" fill="#4A7A9B" opacity="0.5"/>
  <rect x="1096" y="408" width="20" height="28" fill="#E8B048" opacity="0.28"/>
  <rect x="1062" y="450" width="20" height="28" fill="#E8B048" opacity="0.22"/>
  <rect x="1096" y="450" width="20" height="28" fill="#4A7A9B" opacity="0.45"/>
  <rect x="1062" y="492" width="20" height="28" fill="#4A7A9B" opacity="0.48"/>
  <rect x="1096" y="492" width="20" height="28" fill="#4A7A9B" opacity="0.35"/>
  <rect x="1062" y="534" width="20" height="28" fill="#4A7A9B" opacity="0.4"/>
  <rect x="1074" y="600" width="26" height="54" fill="#162432"/>

  <rect x="1136" y="410" width="84" height="244" fill="#1A2830"/>
  <polygon points="1136,410 1178,350 1220,410" fill="#142030"/>
  <rect x="1150" y="427" width="18" height="26" fill="#E8B048" opacity="0.3"/>
  <rect x="1184" y="427" width="18" height="26" fill="#4A7A9B" opacity="0.5"/>
  <rect x="1150" y="466" width="18" height="26" fill="#4A7A9B" opacity="0.42"/>
  <rect x="1184" y="466" width="18" height="26" fill="#E8B048" opacity="0.22"/>
  <rect x="1150" y="505" width="18" height="26" fill="#4A7A9B" opacity="0.48"/>
  <rect x="1184" y="505" width="18" height="26" fill="#4A7A9B" opacity="0.38"/>
  <rect x="1158" y="600" width="24" height="54" fill="#1A2830"/>

  <rect x="1224" y="380" width="90" height="274" fill="#162432"/>
  <rect x="1224" y="366" width="90" height="18" fill="#10202A"/>
  <rect x="1230" y="348" width="78" height="22" fill="#162432"/>
  <rect x="1238" y="332" width="62" height="20" fill="#10202A"/>
  <polygon points="1253,332 1269,308 1285,332" fill="#0C1C26"/>
  <rect x="1240" y="398" width="22" height="30" fill="#4A7A9B" opacity="0.5"/>
  <rect x="1276" y="398" width="22" height="30" fill="#E8B048" opacity="0.3"/>
  <rect x="1240" y="442" width="22" height="30" fill="#E8B048" opacity="0.22"/>
  <rect x="1276" y="442" width="22" height="30" fill="#4A7A9B" opacity="0.48"/>
  <rect x="1240" y="486" width="22" height="30" fill="#4A7A9B" opacity="0.42"/>
  <rect x="1276" y="486" width="22" height="30" fill="#4A7A9B" opacity="0.36"/>
  <rect x="1250" y="600" width="28" height="54" fill="#162432"/>

  <rect x="1318" y="400" width="86" height="254" fill="#1E2E38"/>
  <polygon points="1318,400 1361,338 1404,400" fill="#182830"/>
  <rect x="1334" y="418" width="20" height="28" fill="#E8B048" opacity="0.28"/>
  <rect x="1368" y="418" width="20" height="28" fill="#4A7A9B" opacity="0.5"/>
  <rect x="1334" y="460" width="20" height="28" fill="#4A7A9B" opacity="0.44"/>
  <rect x="1368" y="460" width="20" height="28" fill="#E8B048" opacity="0.22"/>
  <rect x="1334" y="502" width="20" height="28" fill="#4A7A9B" opacity="0.48"/>
  <rect x="1368" y="502" width="20" height="28" fill="#4A7A9B" opacity="0.36"/>
  <rect x="1342" y="600" width="28" height="54" fill="#1E2E38"/>

  <rect x="1408" y="390" width="88" height="264" fill="#162432"/>
  <polygon points="1408,390 1452,326 1496,390" fill="#10202A"/>
  <rect x="1425" y="408" width="20" height="28" fill="#4A7A9B" opacity="0.5"/>
  <rect x="1460" y="408" width="20" height="28" fill="#E8B048" opacity="0.3"/>
  <rect x="1425" y="450" width="20" height="28" fill="#E8B048" opacity="0.24"/>
  <rect x="1460" y="450" width="20" height="28" fill="#4A7A9B" opacity="0.46"/>
  <rect x="1433" y="600" width="28" height="54" fill="#162432"/>

  <!-- Left text fade -->
  <rect x="0" y="0" width="820" height="900" fill="#0A0E12" opacity="0.75"/>

  <!-- XRED EYEZ label -->
  <text x="68" y="90" font-family="'Courier New', monospace" font-size="12" fill="#E8B048" letter-spacing="4" opacity="0.85">XRED EYEZ SELECT</text>

  <!-- Wordmark -->
  <text x="64" y="228" font-family="Georgia, 'Times New Roman', serif" font-size="76" fill="#F5F0E6" font-weight="700" letter-spacing="-1">PULITZER</text>
  <text x="64" y="304" font-family="Georgia, 'Times New Roman', serif" font-size="40" fill="rgba(232,176,72,0.8)" font-weight="400" letter-spacing="2">AMSTERDAM</text>

  <!-- Tagline -->
  <text x="68" y="354" font-family="'Courier New', monospace" font-size="13" fill="#E8B048" letter-spacing="1" opacity="0.9">25 canal houses. Prinsengracht.</text>
  <rect x="68" y="374" width="200" height="1.5" fill="#E8B048" opacity="0.6"/>

  <text x="68" y="412" font-family="'Courier New', monospace" font-size="11" fill="rgba(245,240,230,0.38)" letter-spacing="1">Jordaan · Hotel · Est. 1971</text>

  <text x="68" y="850" font-family="'Courier New', monospace" font-size="10" fill="rgba(232,176,72,0.35)" letter-spacing="3">AMSTERDAM</text>
</svg>
