<svg xmlns="http://www.w3.org/2000/svg" viewBox="0 0 1600 900">
  <defs>
    <linearGradient id="bg" x1="0" y1="0" x2="1" y2="1">
      <stop offset="0%" stop-color="#0C0C0A"/>
      <stop offset="100%" stop-color="#090908"/>
    </linearGradient>
  </defs>
  <rect width="1600" height="900" fill="url(#bg)"/>

  <!-- texture lines -->
  <g opacity="0.06" stroke="#C8B890" stroke-width="0.5">
    <line x1="0" y1="160" x2="1600" y2="220"/>
    <line x1="0" y1="340" x2="1600" y2="300"/>
    <line x1="0" y1="520" x2="1600" y2="560"/>
    <line x1="0" y1="720" x2="1600" y2="680"/>
  </g>

  <g opacity="0.32" transform="translate(1180, 450) scale(2.4)"><path d="M0,0 Q-13.999999999999998,-24 3.67394039744206e-15,-60 Q14.000000000000002,-24 0,0 Z" fill="#C8B890" opacity="0.55"/><line x1="0" y1="0" x2="3.67394039744206e-15" y2="-60" stroke="#786e56" stroke-width="1" opacity="0.4"/><path d="M0,0 Q5.475644347017864,-37.484094213212245 44.00000000000001,-76.2102355330306 Q29.724355652982148,-23.484094213212238 0,0 Z" fill="#C8B890" opacity="0.55"/><line x1="0" y1="0" x2="44.00000000000001" y2="-76.2102355330306" stroke="#786e56" stroke-width="1" opacity="0.4"/><path d="M0,0 Q23.484094213212245,-29.72435565298214 76.21023553303061,-43.99999999999999 Q37.484094213212245,-5.475644347017855 0,0 Z" fill="#C8B890" opacity="0.55"/><line x1="0" y1="0" x2="76.21023553303061" y2="-43.99999999999999" stroke="#786e56" stroke-width="1" opacity="0.4"/><path d="M0,0 Q44,-14 110,0 Q44,14 0,0 Z" fill="#C8B890" opacity="0.55"/><line x1="0" y1="0" x2="110" y2="0" stroke="#786e56" stroke-width="1" opacity="0.4"/><path d="M0,0 Q37.484094213212245,5.475644347017855 76.21023553303061,43.99999999999999 Q23.484094213212245,29.72435565298214 0,0 Z" fill="#C8B890" opacity="0.55"/><line x1="0" y1="0" x2="76.21023553303061" y2="43.99999999999999" stroke="#786e56" stroke-width="1" opacity="0.4"/><path d="M0,0 Q29.724355652982148,23.484094213212238 44.00000000000001,76.2102355330306 Q5.475644347017864,37.484094213212245 0,0 Z" fill="#C8B890" opacity="0.55"/><line x1="0" y1="0" x2="44.00000000000001" y2="76.2102355330306" stroke="#786e56" stroke-width="1" opacity="0.4"/><path d="M0,0 Q14.000000000000002,24 3.67394039744206e-15,60 Q-13.999999999999998,24 0,0 Z" fill="#C8B890" opacity="0.55"/><line x1="0" y1="0" x2="3.67394039744206e-15" y2="60" stroke="#786e56" stroke-width="1" opacity="0.4"/><circle cx="0" cy="0" r="6" fill="#C8B890" opacity="0.7"/></g>

  <!-- left text overlay -->
  <rect x="0" y="0" width="780" height="900" fill="#0C0C0A" opacity="0.82"/>

  <!-- XRED EYEZ label -->
  <text x="68" y="92" font-family="'Courier New', monospace" font-size="12" fill="#C8B890" letter-spacing="4" opacity="0.9">XRED EYEZ CULTURE</text>

  <!-- Wordmark -->
  <text x="64" y="222" font-family="Georgia, 'Times New Roman', serif" font-size="86" fill="#F5F0E6" font-weight="700" letter-spacing="-1">THE POTTERY</text>
  

  <!-- Accent strip -->
  <text x="68" y="286" font-family="'Courier New', monospace" font-size="13" fill="#C8B890" letter-spacing="1" opacity="0.92">Design-forward retail. Curated. East Hollywood.</text>
  <rect x="68" y="306" width="180" height="2.5" fill="#C8B890" opacity="0.85"/>

  <text x="68" y="346" font-family="'Courier New', monospace" font-size="11" fill="rgba(245,240,230,0.4)" letter-spacing="1">East Hollywood · Dispensary</text>

  <text x="68" y="852" font-family="'Courier New', monospace" font-size="10" fill="#C8B890" letter-spacing="3" opacity="0.45">USA</text>
</svg>
