<svg xmlns="http://www.w3.org/2000/svg" viewBox="0 0 1600 900">
  <defs>
    <linearGradient id="bg" x1="0" y1="0" x2="1" y2="1">
      <stop offset="0%" stop-color="#160F0C"/>
      <stop offset="100%" stop-color="#110b09"/>
    </linearGradient>
  </defs>
  <rect width="1600" height="900" fill="url(#bg)"/>

  <!-- texture lines -->
  <g opacity="0.06" stroke="#D98E4A" stroke-width="0.5">
    <line x1="0" y1="160" x2="1600" y2="220"/>
    <line x1="0" y1="340" x2="1600" y2="300"/>
    <line x1="0" y1="520" x2="1600" y2="560"/>
    <line x1="0" y1="720" x2="1600" y2="680"/>
  </g>

  <g opacity="0.42"><rect x="780" y="420" width="78" height="280" fill="#21150b" opacity="0.5"/><polygon points="780,420 819,360 858,420" fill="#21150b" opacity="0.5"/><rect x="788" y="436" width="27" height="28" fill="#D98E4A" opacity="0.12"/><rect x="823" y="436" width="27" height="28" fill="#D98E4A" opacity="0.22"/><rect x="788" y="486" width="27" height="28" fill="#D98E4A" opacity="0.16999999999999998"/><rect x="823" y="486" width="27" height="28" fill="#D98E4A" opacity="0.26"/><rect x="788" y="536" width="27" height="28" fill="#D98E4A" opacity="0.22"/><rect x="823" y="536" width="27" height="28" fill="#D98E4A" opacity="0.18"/><rect x="788" y="586" width="27" height="28" fill="#D98E4A" opacity="0.12"/><rect x="823" y="586" width="27" height="28" fill="#D98E4A" opacity="0.22"/><rect x="788" y="636" width="27" height="28" fill="#D98E4A" opacity="0.16999999999999998"/><rect x="823" y="636" width="27" height="28" fill="#D98E4A" opacity="0.26"/><rect x="805" y="644" width="28" height="52" fill="#D98E4A" opacity="0.16"/><rect x="866" y="480" width="70" height="220" fill="#1c1209" opacity="0.5"/><polygon points="866,480 901,420 936,480" fill="#1c1209" opacity="0.5"/><rect x="874" y="496" width="23" height="28" fill="#D98E4A" opacity="0.12"/><rect x="905" y="496" width="23" height="28" fill="#D98E4A" opacity="0.22"/><rect x="874" y="546" width="23" height="28" fill="#D98E4A" opacity="0.16999999999999998"/><rect x="905" y="546" width="23" height="28" fill="#D98E4A" opacity="0.26"/><rect x="874" y="596" width="23" height="28" fill="#D98E4A" opacity="0.22"/><rect x="905" y="596" width="23" height="28" fill="#D98E4A" opacity="0.18"/><rect x="874" y="646" width="23" height="28" fill="#D98E4A" opacity="0.12"/><rect x="905" y="646" width="23" height="28" fill="#D98E4A" opacity="0.22"/><rect x="887" y="644" width="28" height="52" fill="#D98E4A" opacity="0.16"/><rect x="946" y="400" width="90" height="300" fill="#24170c" opacity="0.5"/><polygon points="946,400 991,340 1036,400" fill="#24170c" opacity="0.5"/><rect x="954" y="416" width="33" height="28" fill="#D98E4A" opacity="0.12"/><rect x="995" y="416" width="33" height="28" fill="#D98E4A" opacity="0.22"/><rect x="954" y="466" width="33" height="28" fill="#D98E4A" opacity="0.16999999999999998"/><rect x="995" y="466" width="33" height="28" fill="#D98E4A" opacity="0.26"/><rect x="954" y="516" width="33" height="28" fill="#D98E4A" opacity="0.22"/><rect x="995" y="516" width="33" height="28" fill="#D98E4A" opacity="0.18"/><rect x="954" y="566" width="33" height="28" fill="#D98E4A" opacity="0.12"/><rect x="995" y="566" width="33" height="28" fill="#D98E4A" opacity="0.22"/><rect x="954" y="616" width="33" height="28" fill="#D98E4A" opacity="0.16999999999999998"/><rect x="995" y="616" width="33" height="28" fill="#D98E4A" opacity="0.26"/><rect x="954" y="666" width="33" height="28" fill="#D98E4A" opacity="0.22"/><rect x="995" y="666" width="33" height="28" fill="#D98E4A" opacity="0.18"/><rect x="977" y="644" width="28" height="52" fill="#D98E4A" opacity="0.16"/><rect x="1046" y="460" width="75" height="240" fill="#1f140b" opacity="0.5"/><polygon points="1046,460 1083.5,400 1121,460" fill="#1f140b" opacity="0.5"/><rect x="1054" y="476" width="25.5" height="28" fill="#D98E4A" opacity="0.12"/><rect x="1087.5" y="476" width="25.5" height="28" fill="#D98E4A" opacity="0.22"/><rect x="1054" y="526" width="25.5" height="28" fill="#D98E4A" opacity="0.16999999999999998"/><rect x="1087.5" y="526" width="25.5" height="28" fill="#D98E4A" opacity="0.26"/><rect x="1054" y="576" width="25.5" height="28" fill="#D98E4A" opacity="0.22"/><rect x="1087.5" y="576" width="25.5" height="28" fill="#D98E4A" opacity="0.18"/><rect x="1054" y="626" width="25.5" height="28" fill="#D98E4A" opacity="0.12"/><rect x="1087.5" y="626" width="25.5" height="28" fill="#D98E4A" opacity="0.22"/><rect x="1069.5" y="644" width="28" height="52" fill="#D98E4A" opacity="0.16"/><rect x="1131" y="490" width="68" height="210" fill="#1c1209" opacity="0.5"/><polygon points="1131,490 1165,430 1199,490" fill="#1c1209" opacity="0.5"/><rect x="1139" y="506" width="22" height="28" fill="#D98E4A" opacity="0.12"/><rect x="1169" y="506" width="22" height="28" fill="#D98E4A" opacity="0.22"/><rect x="1139" y="556" width="22" height="28" fill="#D98E4A" opacity="0.16999999999999998"/><rect x="1169" y="556" width="22" height="28" fill="#D98E4A" opacity="0.26"/><rect x="1139" y="606" width="22" height="28" fill="#D98E4A" opacity="0.22"/><rect x="1169" y="606" width="22" height="28" fill="#D98E4A" opacity="0.18"/><rect x="1139" y="656" width="22" height="28" fill="#D98E4A" opacity="0.12"/><rect x="1169" y="656" width="22" height="28" fill="#D98E4A" opacity="0.22"/><rect x="1151" y="644" width="28" height="52" fill="#D98E4A" opacity="0.16"/><rect x="1209" y="460" width="82" height="240" fill="#21150b" opacity="0.5"/><polygon points="1209,460 1250,400 1291,460" fill="#21150b" opacity="0.5"/><rect x="1217" y="476" width="29" height="28" fill="#D98E4A" opacity="0.12"/><rect x="1254" y="476" width="29" height="28" fill="#D98E4A" opacity="0.22"/><rect x="1217" y="526" width="29" height="28" fill="#D98E4A" opacity="0.16999999999999998"/><rect x="1254" y="526" width="29" height="28" fill="#D98E4A" opacity="0.26"/><rect x="1217" y="576" width="29" height="28" fill="#D98E4A" opacity="0.22"/><rect x="1254" y="576" width="29" height="28" fill="#D98E4A" opacity="0.18"/><rect x="1217" y="626" width="29" height="28" fill="#D98E4A" opacity="0.12"/><rect x="1254" y="626" width="29" height="28" fill="#D98E4A" opacity="0.22"/><rect x="1236" y="644" width="28" height="52" fill="#D98E4A" opacity="0.16"/><rect x="1301" y="430" width="90" height="270" fill="#24170c" opacity="0.5"/><polygon points="1301,430 1346,370 1391,430" fill="#24170c" opacity="0.5"/><rect x="1309" y="446" width="33" height="28" fill="#D98E4A" opacity="0.12"/><rect x="1350" y="446" width="33" height="28" fill="#D98E4A" opacity="0.22"/><rect x="1309" y="496" width="33" height="28" fill="#D98E4A" opacity="0.16999999999999998"/><rect x="1350" y="496" width="33" height="28" fill="#D98E4A" opacity="0.26"/><rect x="1309" y="546" width="33" height="28" fill="#D98E4A" opacity="0.22"/><rect x="1350" y="546" width="33" height="28" fill="#D98E4A" opacity="0.18"/><rect x="1309" y="596" width="33" height="28" fill="#D98E4A" opacity="0.12"/><rect x="1350" y="596" width="33" height="28" fill="#D98E4A" opacity="0.22"/><rect x="1309" y="646" width="33" height="28" fill="#D98E4A" opacity="0.16999999999999998"/><rect x="1350" y="646" width="33" height="28" fill="#D98E4A" opacity="0.26"/><rect x="1332" y="644" width="28" height="52" fill="#D98E4A" opacity="0.16"/><rect x="1401" y="470" width="80" height="230" fill="#1f140b" opacity="0.5"/><polygon points="1401,470 1441,410 1481,470" fill="#1f140b" opacity="0.5"/><rect x="1409" y="486" width="28" height="28" fill="#D98E4A" opacity="0.12"/><rect x="1445" y="486" width="28" height="28" fill="#D98E4A" opacity="0.22"/><rect x="1409" y="536" width="28" height="28" fill="#D98E4A" opacity="0.16999999999999998"/><rect x="1445" y="536" width="28" height="28" fill="#D98E4A" opacity="0.26"/><rect x="1409" y="586" width="28" height="28" fill="#D98E4A" opacity="0.22"/><rect x="1445" y="586" width="28" height="28" fill="#D98E4A" opacity="0.18"/><rect x="1409" y="636" width="28" height="28" fill="#D98E4A" opacity="0.12"/><rect x="1445" y="636" width="28" height="28" fill="#D98E4A" opacity="0.22"/><rect x="1427" y="644" width="28" height="52" fill="#D98E4A" opacity="0.16"/><rect x="780" y="700" width="800" height="76" fill="#000" opacity="0.5"/><line x1="800" y1="722" x2="1570" y2="722" stroke="#D98E4A" stroke-width="0.8" opacity="0.14"/><line x1="840" y1="744" x2="1530" y2="744" stroke="#D98E4A" stroke-width="0.6" opacity="0.10"/></g>

  <!-- left text overlay -->
  <rect x="0" y="0" width="780" height="900" fill="#160F0C" opacity="0.82"/>

  <!-- XRED EYEZ label -->
  <text x="68" y="92" font-family="'Courier New', monospace" font-size="12" fill="#D98E4A" letter-spacing="4" opacity="0.9">XRED EYEZ CULTURE</text>

  <!-- Wordmark -->
  <text x="64" y="222" font-family="Georgia, 'Times New Roman', serif" font-size="86" fill="#F5F0E6" font-weight="700" letter-spacing="-1">THE STUD</text>
  

  <!-- Accent strip -->
  <text x="68" y="286" font-family="'Courier New', monospace" font-size="13" fill="#D98E4A" letter-spacing="1" opacity="0.92">East Amsterdam. Local rhythm.</text>
  <rect x="68" y="306" width="180" height="2.5" fill="#D98E4A" opacity="0.85"/>

  <text x="68" y="346" font-family="'Courier New', monospace" font-size="11" fill="rgba(245,240,230,0.4)" letter-spacing="1">Oost · Coffeeshop</text>

  <text x="68" y="852" font-family="'Courier New', monospace" font-size="10" fill="#D98E4A" letter-spacing="3" opacity="0.45">AMSTERDAM</text>
</svg>
