<svg xmlns="http://www.w3.org/2000/svg" viewBox="0 0 1600 900">
  <defs>
    <linearGradient id="bg" x1="0" y1="0" x2="1" y2="1">
      <stop offset="0%" stop-color="#0A0A0C"/>
      <stop offset="100%" stop-color="#080809"/>
    </linearGradient>
  </defs>
  <rect width="1600" height="900" fill="url(#bg)"/>

  <!-- texture lines -->
  <g opacity="0.06" stroke="#C09060" stroke-width="0.5">
    <line x1="0" y1="160" x2="1600" y2="220"/>
    <line x1="0" y1="340" x2="1600" y2="300"/>
    <line x1="0" y1="520" x2="1600" y2="560"/>
    <line x1="0" y1="720" x2="1600" y2="680"/>
  </g>

  <g opacity="0.46"><polygon points="700,640 880,420 1020,540 1180,360 1340,500 1500,400 1600,520 1600,760 700,760" fill="#56412b" opacity="0.6"/><polygon points="700,720 900,540 1080,640 1240,500 1420,620 1600,560 1600,760 700,760" fill="#7d5e3e" opacity="0.55"/><circle cx="1380" cy="280" r="48" fill="#C09060" opacity="0.45"/><circle cx="1380" cy="280" r="68" fill="#C09060" opacity="0.18"/></g>

  <!-- left text overlay -->
  <rect x="0" y="0" width="780" height="900" fill="#0A0A0C" opacity="0.82"/>

  <!-- XRED EYEZ label -->
  <text x="68" y="92" font-family="'Courier New', monospace" font-size="12" fill="#C09060" letter-spacing="4" opacity="0.9">XRED EYEZ CULTURE</text>

  <!-- Wordmark -->
  <text x="64" y="222" font-family="Georgia, 'Times New Roman', serif" font-size="78" fill="#F5F0E6" font-weight="700" letter-spacing="-1">THE TEST</text>
  <text x="64" y="308" font-family="Georgia, 'Times New Roman', serif" font-size="78" fill="#F5F0E6" font-weight="700" letter-spacing="-1">KITCHEN</text>

  <!-- Accent strip -->
  <text x="68" y="372" font-family="'Courier New', monospace" font-size="13" fill="#C09060" letter-spacing="1" opacity="0.92">Africa&#39;s #1. Dark + light kitchen. Woodstock.</text>
  <rect x="68" y="390" width="180" height="2.5" fill="#C09060" opacity="0.85"/>

  <text x="68" y="430" font-family="'Courier New', monospace" font-size="11" fill="rgba(245,240,230,0.4)" letter-spacing="1">Woodstock · Restaurant</text>

  <text x="68" y="852" font-family="'Courier New', monospace" font-size="10" fill="#C09060" letter-spacing="3" opacity="0.45">CAPE TOWN</text>
</svg>
