<svg xmlns="http://www.w3.org/2000/svg" viewBox="0 0 1600 900">
  <defs>
    <linearGradient id="bg" x1="0" y1="0" x2="1" y2="1">
      <stop offset="0%" stop-color="#0A0C08"/>
      <stop offset="100%" stop-color="#080906"/>
    </linearGradient>
  </defs>
  <rect width="1600" height="900" fill="url(#bg)"/>

  <!-- texture lines -->
  <g opacity="0.06" stroke="#84C51F" stroke-width="0.5">
    <line x1="0" y1="160" x2="1600" y2="220"/>
    <line x1="0" y1="340" x2="1600" y2="300"/>
    <line x1="0" y1="520" x2="1600" y2="560"/>
    <line x1="0" y1="720" x2="1600" y2="680"/>
  </g>

  <g opacity="0.6"><rect x="760" y="280" width="820" height="380" fill="#141e05" opacity="0.3"/><rect x="780" y="300" width="6" height="100" fill="#84C51F" opacity="0.4"/><rect x="778" y="300" width="10" height="100" fill="#84C51F" opacity="0.12" filter="blur(2px)"/><rect x="838" y="313" width="6" height="117" fill="#84C51F" opacity="0.5800000000000001"/><rect x="836" y="313" width="10" height="117" fill="#84C51F" opacity="0.12" filter="blur(2px)"/><rect x="896" y="326" width="6" height="134" fill="#84C51F" opacity="0.76"/><rect x="894" y="326" width="10" height="134" fill="#84C51F" opacity="0.12" filter="blur(2px)"/><rect x="954" y="339" width="6" height="151" fill="#84C51F" opacity="0.4"/><rect x="952" y="339" width="10" height="151" fill="#84C51F" opacity="0.12" filter="blur(2px)"/><rect x="1012" y="352" width="6" height="168" fill="#84C51F" opacity="0.5800000000000001"/><rect x="1010" y="352" width="10" height="168" fill="#84C51F" opacity="0.12" filter="blur(2px)"/><rect x="1070" y="365" width="6" height="185" fill="#84C51F" opacity="0.76"/><rect x="1068" y="365" width="10" height="185" fill="#84C51F" opacity="0.12" filter="blur(2px)"/><rect x="1128" y="378" width="6" height="202" fill="#84C51F" opacity="0.4"/><rect x="1126" y="378" width="10" height="202" fill="#84C51F" opacity="0.12" filter="blur(2px)"/><rect x="1186" y="311" width="6" height="219" fill="#84C51F" opacity="0.5800000000000001"/><rect x="1184" y="311" width="10" height="219" fill="#84C51F" opacity="0.12" filter="blur(2px)"/><rect x="1244" y="324" width="6" height="236" fill="#84C51F" opacity="0.76"/><rect x="1242" y="324" width="10" height="236" fill="#84C51F" opacity="0.12" filter="blur(2px)"/><rect x="1302" y="337" width="6" height="253" fill="#84C51F" opacity="0.4"/><rect x="1300" y="337" width="10" height="253" fill="#84C51F" opacity="0.12" filter="blur(2px)"/><rect x="1360" y="350" width="6" height="270" fill="#84C51F" opacity="0.5800000000000001"/><rect x="1358" y="350" width="10" height="270" fill="#84C51F" opacity="0.12" filter="blur(2px)"/><rect x="1418" y="363" width="6" height="287" fill="#84C51F" opacity="0.76"/><rect x="1416" y="363" width="10" height="287" fill="#84C51F" opacity="0.12" filter="blur(2px)"/><rect x="1476" y="376" width="6" height="304" fill="#84C51F" opacity="0.4"/><rect x="1474" y="376" width="10" height="304" fill="#84C51F" opacity="0.12" filter="blur(2px)"/><rect x="1534" y="309" width="6" height="101" fill="#84C51F" opacity="0.5800000000000001"/><rect x="1532" y="309" width="10" height="101" fill="#84C51F" opacity="0.12" filter="blur(2px)"/><ellipse cx="1170" cy="680" rx="420" ry="40" fill="#84C51F" opacity="0.18"/></g>

  <!-- left text overlay -->
  <rect x="0" y="0" width="780" height="900" fill="#0A0C08" opacity="0.82"/>

  <!-- XRED EYEZ label -->
  <text x="68" y="92" font-family="'Courier New', monospace" font-size="12" fill="#84C51F" letter-spacing="4" opacity="0.9">XRED EYEZ CULTURE</text>

  <!-- Wordmark -->
  <text x="64" y="222" font-family="Georgia, 'Times New Roman', serif" font-size="78" fill="#F5F0E6" font-weight="700" letter-spacing="-1">THE JOINT</text>
  <text x="64" y="308" font-family="Georgia, 'Times New Roman', serif" font-size="78" fill="#F5F0E6" font-weight="700" letter-spacing="-1">BANGKOK</text>

  <!-- Accent strip -->
  <text x="68" y="372" font-family="'Courier New', monospace" font-size="13" fill="#84C51F" letter-spacing="1" opacity="0.92">Bangkok&#39;s most famous cannabis café. Rooftop. Thai strains.</text>
  <rect x="68" y="390" width="180" height="2.5" fill="#84C51F" opacity="0.85"/>

  <text x="68" y="430" font-family="'Courier New', monospace" font-size="11" fill="rgba(245,240,230,0.4)" letter-spacing="1">Asok / Sukhumvit · Cannabis Café</text>

  <text x="68" y="852" font-family="'Courier New', monospace" font-size="10" fill="#84C51F" letter-spacing="3" opacity="0.45">BANGKOK</text>
</svg>
